<?xml version="1.0" encoding="utf-8"?>
<svg xmlns="http://www.w3.org/2000/svg" style="margin: auto; background: rgb(241, 242, 243); display: block; shape-rendering: auto;" width="288" height="250" preserveAspectRatio="xMidYMid">
<style type="text/css">
  text {
    text-anchor: middle; font-size: 53px; opacity: 0;
  }
</style>
<g transform="translate(144,125)">
  <g transform="translate(0,0)"><g class="path" style="transform-origin: -115.015px 0.419235px; opacity: 1; animation: 1s linear -0.6s infinite normal forwards running fade-eae4fe5b-3772-4298-a665-bd2016ba5f63;"><path d="M23.27-26.55L21.84-22.52L21.84-22.52Q20.30-23.27 18.97-23.61L18.97-23.61L18.97-23.61Q17.65-23.96 16.01-23.96L16.01-23.96L16.01-23.96Q14.15-23.96 12.53-23.27L12.53-23.27L12.53-23.27Q10.92-22.58 9.75-21.28L9.75-21.28L9.75-21.28Q8.59-19.98 7.92-18.13L7.92-18.13L7.92-18.13Q7.26-16.27 7.26-13.89L7.26-13.89L7.26-13.89Q7.26-11.71 7.87-9.86L7.87-9.86L7.87-9.86Q8.48-8.00 9.59-6.60L9.59-6.60L9.59-6.60Q10.71-5.19 12.24-4.40L12.24-4.40L12.24-4.40Q13.78-3.60 15.69-3.60L15.69-3.60L15.69-3.60Q17.70-3.60 19.13-4.03L19.13-4.03L19.13-4.03Q20.56-4.45 22.21-5.35L22.21-5.35L23.69-1.32L23.69-1.32Q22.00-0.42 19.98 0.11L19.98 0.11L19.98 0.11Q17.97 0.64 15.37 0.64L15.37 0.64L15.37 0.64Q12.40 0.64 10.02-0.42L10.02-0.42L10.02-0.42Q7.63-1.48 5.94-3.39L5.94-3.39L5.94-3.39Q4.24-5.30 3.31-7.95L3.31-7.95L3.31-7.95Q2.38-10.60 2.38-13.78L2.38-13.78L2.38-13.78Q2.38-16.75 3.31-19.37L3.31-19.37L3.31-19.37Q4.24-22.00 5.99-23.96L5.99-23.96L5.99-23.96Q7.74-25.92 10.20-27.06L10.20-27.06L10.20-27.06Q12.67-28.20 15.74-28.20L15.74-28.20L15.74-28.20Q18.13-28.20 19.88-27.77L19.88-27.77L19.88-27.77Q21.62-27.35 23.27-26.55L23.27-26.55" fill="#00d8ff" stroke="none" stroke-width="none" transform="translate(-128.04998779296875,14.19922446511008)" style="fill: rgb(34, 34, 34);"></path></g><g class="path" style="transform-origin: -87.715px 0.419235px; opacity: 1; animation: 1s linear -0.54s infinite normal forwards running fade-eae4fe5b-3772-4298-a665-bd2016ba5f63;"><path d="M49.18-13.78L49.18-13.78L49.18-13.78Q49.18-15.85 48.52-17.70L48.52-17.70L48.52-17.70Q47.86-19.56 46.67-20.93L46.67-20.93L46.67-20.93Q45.47-22.31 43.86-23.13L43.86-23.13L43.86-23.13Q42.24-23.96 40.33-23.96L40.33-23.96L40.33-23.96Q36.15-23.96 33.81-21.20L33.81-21.20L33.81-21.20Q31.48-18.44 31.48-13.89L31.48-13.89L31.48-13.89Q31.48-11.82 32.14-9.94L32.14-9.94L32.14-9.94Q32.81-8.06 34.00-6.65L34.00-6.65L34.00-6.65Q35.19-5.25 36.81-4.43L36.81-4.43L36.81-4.43Q38.42-3.60 40.33-3.60L40.33-3.60L40.33-3.60Q42.40-3.60 44.04-4.35L44.04-4.35L44.04-4.35Q45.69-5.09 46.83-6.44L46.83-6.44L46.83-6.44Q47.96-7.79 48.57-9.65L48.57-9.65L48.57-9.65Q49.18-11.50 49.18-13.78zM26.61-13.78L26.61-13.78L26.61-13.78Q26.61-17.12 27.67-19.80L27.67-19.80L27.67-19.80Q28.73-22.47 30.55-24.33L30.55-24.33L30.55-24.33Q32.38-26.18 34.90-27.19L34.90-27.19L34.90-27.19Q37.42-28.20 40.33-28.20L40.33-28.20L40.33-28.20Q43.19-28.20 45.71-27.19L45.71-27.19L45.71-27.19Q48.23-26.18 50.08-24.33L50.08-24.33L50.08-24.33Q51.94-22.47 53-19.82L53-19.82L53-19.82Q54.06-17.17 54.06-13.89L54.06-13.89L54.06-13.89Q54.06-10.60 53.03-7.92L53.03-7.92L53.03-7.92Q51.99-5.25 50.14-3.34L50.14-3.34L50.14-3.34Q48.28-1.43 45.77-0.40L45.77-0.40L45.77-0.40Q43.25 0.64 40.33 0.64L40.33 0.64L40.33 0.64Q37.36 0.64 34.85-0.42L34.85-0.42L34.85-0.42Q32.33-1.48 30.50-3.39L30.50-3.39L30.50-3.39Q28.67-5.30 27.64-7.95L27.64-7.95L27.64-7.95Q26.61-10.60 26.61-13.78" fill="#00d8ff" stroke="none" stroke-width="none" transform="translate(-128.04998779296875,14.19922446511008)" style="fill: rgb(0, 216, 255);"></path></g><g class="path" style="transform-origin: -56.05px 0.0992279px; opacity: 1; animation: 1s linear -0.48s infinite normal forwards running fade-eae4fe5b-3772-4298-a665-bd2016ba5f63;"><path d="M65.03-27.56L65.03-22.95L65.03-22.95Q66.51-25.18 68.82-26.69L68.82-26.69L68.82-26.69Q71.13-28.20 74.31-28.20L74.31-28.20L74.31-28.20Q78.97-28.20 81.28-25.39L81.28-25.39L81.28-25.39Q83.58-22.58 83.58-17.97L83.58-17.97L83.58 0L78.81 0L78.81-17.44L78.81-17.44Q78.81-20.46 77.43-22.23L77.43-22.23L77.43-22.23Q76.05-24.01 73.51-24.01L73.51-24.01L73.51-24.01Q72.29-24.01 71.13-23.56L71.13-23.56L71.13-23.56Q69.96-23.11 68.87-22.31L68.87-22.31L68.87-22.31Q67.79-21.52 66.86-20.46L66.86-20.46L66.86-20.46Q65.93-19.40 65.19-18.23L65.19-18.23L65.19 0L60.42 0L60.42-27.56L65.03-27.56" fill="#00d8ff" stroke="none" stroke-width="none" transform="translate(-128.04998779296875,14.19922446511008)" style="fill: rgb(34, 34, 34);"></path></g><g class="path" style="transform-origin: -26.37px 0.154221px; opacity: 1; animation: 1s linear -0.42s infinite normal forwards running fade-eae4fe5b-3772-4298-a665-bd2016ba5f63;"><path d="M99.16 0L88.09-26.29L92.43-28.09L101.81-5.41L111.19-28.09L115.27-26.29L104.14 0L99.16 0" fill="#00d8ff" stroke="none" stroke-width="none" transform="translate(-128.04998779296875,14.19922446511008)" style="fill: rgb(0, 216, 255);"></path></g><g class="path" style="transform-origin: 1.24503px 0.419235px; opacity: 1; animation: 1s linear -0.36s infinite normal forwards running fade-eae4fe5b-3772-4298-a665-bd2016ba5f63;"><path d="M141.30-11.82L122.01-11.82L122.01-11.82Q122.48-7.95 124.71-5.78L124.71-5.78L124.71-5.78Q126.93-3.60 130.59-3.60L130.59-3.60L130.59-3.60Q132.98-3.60 134.88-4.11L134.88-4.11L134.88-4.11Q136.79-4.61 138.54-5.41L138.54-5.41L139.65-1.32L139.65-1.32Q137.75-0.42 135.36 0.11L135.36 0.11L135.36 0.11Q132.98 0.64 130.01 0.64L130.01 0.64L130.01 0.64Q127.04 0.64 124.66-0.34L124.66-0.34L124.66-0.34Q122.27-1.32 120.60-3.15L120.60-3.15L120.60-3.15Q118.93-4.98 118.03-7.66L118.03-7.66L118.03-7.66Q117.13-10.33 117.13-13.78L117.13-13.78L117.13-13.78Q117.13-16.85 118.03-19.50L118.03-19.50L118.03-19.50Q118.93-22.15 120.57-24.09L120.57-24.09L120.57-24.09Q122.22-26.02 124.50-27.11L124.50-27.11L124.50-27.11Q126.78-28.20 129.58-28.20L129.58-28.20L129.58-28.20Q132.55-28.20 134.78-27.19L134.78-27.19L134.78-27.19Q137.00-26.18 138.49-24.43L138.49-24.43L138.49-24.43Q139.97-22.68 140.71-20.35L140.71-20.35L140.71-20.35Q141.46-18.02 141.46-15.42L141.46-15.42L141.46-15.42Q141.46-13.57 141.30-11.82L141.30-11.82zM129.48-24.06L129.48-24.06L129.48-24.06Q126.35-24.06 124.36-21.94L124.36-21.94L124.36-21.94Q122.38-19.82 121.95-15.69L121.95-15.69L137.06-15.69L137.06-15.69Q137.06-19.72 135.04-21.89L135.04-21.89L135.04-21.89Q133.03-24.06 129.48-24.06" fill="#00d8ff" stroke="none" stroke-width="none" transform="translate(-128.04998779296875,14.19922446511008)" style="fill: rgb(34, 34, 34);"></path></g><g class="path" style="transform-origin: 27.955px 0.0992279px; opacity: 1; animation: 1s linear -0.3s infinite normal forwards running fade-eae4fe5b-3772-4298-a665-bd2016ba5f63;"><path d="M164.19-27.88L162.76-22.95L162.76-22.95Q161.76-23.37 160.38-23.37L160.38-23.37L160.38-23.37Q158.89-23.37 157.49-22.74L157.49-22.74L157.49-22.74Q156.08-22.10 155.00-20.83L155.00-20.83L155.00-20.83Q153.91-19.56 153.25-17.57L153.25-17.57L153.25-17.57Q152.59-15.58 152.59-12.88L152.59-12.88L152.59 0L147.82 0L147.82-27.56L152.43-27.56L152.43-21.57L152.43-21.57Q152.90-22.84 153.70-24.06L153.70-24.06L153.70-24.06Q154.49-25.28 155.58-26.18L155.58-26.18L155.58-26.18Q156.67-27.08 158.10-27.64L158.10-27.64L158.10-27.64Q159.53-28.20 161.28-28.20L161.28-28.20L161.28-28.20Q162.07-28.20 162.84-28.12L162.84-28.12L162.84-28.12Q163.61-28.04 164.19-27.88L164.19-27.88" fill="#00d8ff" stroke="none" stroke-width="none" transform="translate(-128.04998779296875,14.19922446511008)" style="fill: rgb(0, 216, 255);"></path></g><g class="path" style="transform-origin: 48.25px -3.10077px; opacity: 1; animation: 1s linear -0.24s infinite normal forwards running fade-eae4fe5b-3772-4298-a665-bd2016ba5f63;"><path d="M171.19-26.55L172.20-35.24L175.85-35.24L175.85-26.55L183.49-26.55L183.49-22.42L175.85-22.42L175.85-9.12L175.85-9.12Q175.85-7.58 176.20-6.52L176.20-6.52L176.20-6.52Q176.54-5.46 177.13-4.82L177.13-4.82L177.13-4.82Q177.71-4.19 178.53-3.90L178.53-3.90L178.53-3.90Q179.35-3.60 180.25-3.60L180.25-3.60L180.25-3.60Q181.58-3.60 182.74-4.03L182.74-4.03L182.74-4.03Q183.91-4.45 184.97-5.04L184.97-5.04L186.29-1.22L186.29-1.22Q185.23-0.58 183.43 0.03L183.43 0.03L183.43 0.03Q181.63 0.64 179.67 0.64L179.67 0.64L179.67 0.64Q175.69 0.64 173.39-1.96L173.39-1.96L173.39-1.96Q171.08-4.56 171.08-9.49L171.08-9.49L171.08-22.42L166.31-22.42L166.31-26.55L171.19-26.55" fill="#00d8ff" stroke="none" stroke-width="none" transform="translate(-128.04998779296875,14.19922446511008)" style="fill: rgb(34, 34, 34);"></path></g><g class="path" style="transform-origin: 65.395px 0.41922px; opacity: 1; animation: 1s linear -0.18s infinite normal forwards running fade-eae4fe5b-3772-4298-a665-bd2016ba5f63;"><path d="M195.83-27.56L195.83 0L191.06 0L191.06-27.56L195.83-27.56" fill="#00d8ff" stroke="none" stroke-width="none" transform="translate(-128.04998779296875,14.19922446511008)" style="fill: rgb(0, 216, 255);"></path></g><g class="path" style="transform-origin: 65.4px -21.4158px; opacity: 1; animation: 1s linear -0.12s infinite normal forwards running fade-eae4fe5b-3772-4298-a665-bd2016ba5f63;"><path d="M193.45-32.28L193.45-32.28L193.45-32.28Q192.07-32.28 191.09-33.26L191.09-33.26L191.09-33.26Q190.11-34.24 190.11-35.62L190.11-35.62L190.11-35.62Q190.11-37.15 191.01-38.05L191.01-38.05L191.01-38.05Q191.91-38.95 193.45-38.95L193.45-38.95L193.45-38.95Q194.83-38.95 195.81-37.97L195.81-37.97L195.81-37.97Q196.79-36.99 196.79-35.62L196.79-35.62L196.79-35.62Q196.79-34.08 195.89-33.18L195.89-33.18L195.89-33.18Q194.99-32.28 193.45-32.28" fill="#00d8ff" stroke="none" stroke-width="none" transform="translate(-128.04998779296875,14.19922446511008)" style="fill: rgb(34, 34, 34);"></path></g><g class="path" style="transform-origin: 87.845px 0.0992279px; opacity: 1; animation: 1s linear -0.06s infinite normal forwards running fade-eae4fe5b-3772-4298-a665-bd2016ba5f63;"><path d="M208.93-27.56L208.93-22.95L208.93-22.95Q210.41-25.18 212.72-26.69L212.72-26.69L212.72-26.69Q215.02-28.20 218.20-28.20L218.20-28.20L218.20-28.20Q222.86-28.20 225.17-25.39L225.17-25.39L225.17-25.39Q227.48-22.58 227.48-17.97L227.48-17.97L227.48 0L222.71 0L222.71-17.44L222.71-17.44Q222.71-20.46 221.33-22.23L221.33-22.23L221.33-22.23Q219.95-24.01 217.41-24.01L217.41-24.01L217.41-24.01Q216.19-24.01 215.02-23.56L215.02-23.56L215.02-23.56Q213.85-23.11 212.77-22.31L212.77-22.31L212.77-22.31Q211.68-21.52 210.75-20.46L210.75-20.46L210.75-20.46Q209.83-19.40 209.08-18.23L209.08-18.23L209.08 0L204.31 0L204.31-27.56L208.93-27.56" fill="#00d8ff" stroke="none" stroke-width="none" transform="translate(-128.04998779296875,14.19922446511008)" style="fill: rgb(0, 216, 255);"></path></g><g class="path" style="transform-origin: 118.11px 6.24924px; opacity: 1; animation: 1s linear 0s infinite normal forwards running fade-eae4fe5b-3772-4298-a665-bd2016ba5f63;"><path d="M246.61-28.20L246.61-28.20L246.61-28.20Q248.99-28.20 250.88-27.40L250.88-27.40L250.88-27.40Q252.76-26.61 254.13-25.44L254.13-25.44L254.13-27.56L258.48-27.56L258.48-0.64L258.48-0.64Q258.48 2.81 257.58 5.25L257.58 5.25L257.58 5.25Q256.68 7.68 255.01 9.25L255.01 9.25L255.01 9.25Q253.34 10.81 251.01 11.55L251.01 11.55L251.01 11.55Q248.68 12.30 245.81 12.30L245.81 12.30L245.81 12.30Q243.32 12.30 241.04 11.71L241.04 11.71L241.04 11.71Q238.76 11.13 236.96 9.96L236.96 9.96L238.71 5.83L238.71 5.83Q239.98 6.84 241.68 7.50L241.68 7.50L241.68 7.50Q243.38 8.16 245.81 8.16L245.81 8.16L245.81 8.16Q249.58 8.16 251.72 6.20L251.72 6.20L251.72 6.20Q253.87 4.24 253.87-0.16L253.87-0.16L253.87-3.55L253.87-3.55Q252.81-2.28 250.82-1.14L250.82-1.14L250.82-1.14Q248.83 0 246.08 0L246.08 0L246.08 0Q243.75 0 241.52-0.93L241.52-0.93L241.52-0.93Q239.29-1.85 237.60-3.63L237.60-3.63L237.60-3.63Q235.90-5.41 234.87-7.98L234.87-7.98L234.87-7.98Q233.84-10.55 233.84-13.89L233.84-13.89L233.84-13.89Q233.84-16.96 234.84-19.58L234.84-19.58L234.84-19.58Q235.85-22.21 237.57-24.11L237.57-24.11L237.57-24.11Q239.29-26.02 241.63-27.11L241.63-27.11L241.63-27.11Q243.96-28.20 246.61-28.20zM247.14-4.24L247.14-4.24L247.14-4.24Q249.26-4.24 250.95-5.19L250.95-5.19L250.95-5.19Q252.65-6.15 253.71-7.42L253.71-7.42L253.71-21.84L253.71-21.84Q252.49-22.68 250.90-23.37L250.90-23.37L250.90-23.37Q249.31-24.06 247.09-24.06L247.09-24.06L247.09-24.06Q245.44-24.06 243.93-23.40L243.93-23.40L243.93-23.40Q242.42-22.74 241.26-21.46L241.26-21.46L241.26-21.46Q240.09-20.19 239.40-18.36L239.40-18.36L239.40-18.36Q238.71-16.54 238.71-14.15L238.71-14.15L238.71-14.15Q238.71-11.87 239.40-10.04L239.40-10.04L239.40-10.04Q240.09-8.21 241.26-6.92L241.26-6.92L241.26-6.92Q242.42-5.62 243.93-4.93L243.93-4.93L243.93-4.93Q245.44-4.24 247.14-4.24" fill="#00d8ff" stroke="none" stroke-width="none" transform="translate(-128.04998779296875,14.19922446511008)" style="fill: rgb(34, 34, 34);"></path></g></g>
</g>
<style id="fade-eae4fe5b-3772-4298-a665-bd2016ba5f63" data-anikit="">@keyframes fade-eae4fe5b-3772-4298-a665-bd2016ba5f63
{
  0% {
    animation-timing-function: cubic-bezier(0.2057,0.573,0.3723,0.9184);
    opacity: 1;
  }
  100% {
    opacity: 0;
  }
}</style><style id="fade-eae4fe5b-3772-4298-a665-bd2016ba5f63" data-anikit="">@keyframes fade-eae4fe5b-3772-4298-a665-bd2016ba5f63
{
  0% {
    animation-timing-function: cubic-bezier(0.2057,0.573,0.3723,0.9184);
    opacity: 1;
  }
  100% {
    opacity: 0;
  }
}</style></svg>